<?xml version="1.0" encoding="utf-8"?>
<!-- Generator: Adobe Illustrator 16.0.0, SVG Export Plug-In . SVG Version: 6.00 Build 0)  -->
<!DOCTYPE svg PUBLIC "-//W3C//DTD SVG 1.1//EN" "http://www.w3.org/Graphics/SVG/1.1/DTD/svg11.dtd">
<svg version="1.1" id="Layer_1" xmlns="http://www.w3.org/2000/svg" xmlns:xlink="http://www.w3.org/1999/xlink" x="0px" y="0px"
	 width="400px" height="400px" viewBox="0 0 400 400" enable-background="new 0 0 400 400" xml:space="preserve" fill="#000">
<rect width="400" height="400"/>
<g>
	<g>
		<g>
			<path fill="#fff" d="M28.308,345.678l7.174,31.989h0.12l7.175-31.989h13.806l-13.443,48.369H27.944L14.56,345.678H28.308z"/>
			<path fill="#fff" d="M75.456,358.274c4.58,0,8.016,0.82,10.306,2.454c2.292,1.636,3.438,5.392,3.438,11.264v22.055H77.565
				v-20.34c0-2.325-0.275-3.861-0.818-4.613c-0.539-0.746-1.956-1.122-4.248-1.122h-2.712v26.075H58.151v-35.772H75.456z"/>
			<path fill="#fff" d="M93.479,371.992c0-5.361,1.388-9.127,4.161-11.294c2.774-2.167,6.952-3.252,12.54-3.252
				c5.144,0,9.11,0.621,11.91,1.862c2.789,1.244,4.188,3.934,4.188,8.068c0,3.907-1.276,7.081-3.829,9.523
				c-2.552,2.446-5.658,4.732-9.315,6.859c1.445,0.474,3.718,0.709,6.813,0.709h4.581l-2.831,9.578h-7.055
				c-3.66,0-7.125-0.971-10.401-2.926c-3.277-1.952-5.889-4.601-7.836-7.954C94.453,379.82,93.479,376.096,93.479,371.992z
				 M106.081,376.723c1.527-0.627,3.317-1.725,5.365-3.28c2.052-1.561,3.077-3.084,3.077-4.584c0-1.143-1.108-1.712-3.316-1.712
				c-1.73,0-3.136,0.439-4.224,1.328c-1.084,0.886-1.629,2.217-1.629,3.989C105.354,373.453,105.596,374.871,106.081,376.723z"/>
			<path fill="#fff" d="M131.042,383.051v-15.436h-2.594v-9.341h2.594v-6.979l11.634-3.312v10.29h5.967v9.341h-5.967v13.602
				c0,1.34,0.201,2.217,0.604,2.63c0.4,0.412,1.344,0.622,2.832,0.622h4.102l-2.956,9.578h-5.187c-3.776,0-6.56-0.887-8.351-2.658
				C131.934,389.616,131.042,386.836,131.042,383.051z"/>
		</g>
		<g>
			<path fill="#fff" d="M176.978,365.306h-11.922v27.842h-5.111v-32.853h29.522c6.435,0,9.649,3.156,9.649,9.463v23.39h-5.107
				v-23.39c0-2.969-1.515-4.452-4.542-4.452h-7.383v27.842h-5.105V365.306z"/>
			<path fill="#fff" d="M207.067,365.306v-5.011h18.165c6.433,0,9.652,3.156,9.652,9.463v13.925c0,6.31-3.22,9.465-9.652,9.465
				h-11.355c-6.432,0-9.651-3.155-9.651-9.465v-0.114c0-6.236,3.22-9.353,9.651-9.353h12.493v5.012h-12.493
				c-3.024,0-4.542,1.444-4.542,4.341v0.114c0,2.966,1.518,4.455,4.542,4.455h11.355c3.025,0,4.545-1.489,4.545-4.455v-13.925
				c0-2.969-1.52-4.452-4.545-4.452H207.067z"/>
			<path fill="#fff" d="M265.542,388.138v5.01h-15.33c-6.437,0-9.653-3.155-9.653-9.465v-13.925c0-6.307,3.217-9.463,9.653-9.463
				h15.33v5.011h-15.33c-3.029,0-4.545,1.483-4.545,4.452v13.925c0,2.966,1.516,4.455,4.545,4.455H265.542z"/>
			<path fill="#fff" d="M300.743,393.147h-5.113v-23.39c0-2.969-1.511-4.452-4.54-4.452h-15.897v27.842h-5.108v-46.77h5.108
				v13.917h15.897c6.434,0,9.653,3.156,9.653,9.463V393.147z"/>
			<path fill="#fff" d="M306.417,346.378h6.814v6.791h-6.814V346.378z M307.322,360.295h5.113v32.853h-5.113V360.295z"/>
			<path fill="#fff" d="M349.565,393.147h-5.108v-23.39c0-2.969-1.521-4.452-4.542-4.452h-15.9v27.842h-5.108v-32.853h21.009
				c6.431,0,9.65,3.156,9.65,9.463V393.147z"/>
			<path fill="#fff" d="M357.512,365.306v-5.011h18.169c6.43,0,9.649,3.156,9.649,9.463v13.925c0,6.31-3.22,9.465-9.649,9.465
				h-11.354c-6.436,0-9.653-3.155-9.653-9.465v-0.114c0-6.236,3.218-9.353,9.653-9.353h12.485v5.012h-12.485
				c-3.035,0-4.545,1.444-4.545,4.341v0.114c0,2.966,1.51,4.455,4.545,4.455h11.354c3.02,0,4.541-1.489,4.541-4.455v-13.925
				c0-2.969-1.521-4.452-4.541-4.452H357.512z"/>
		</g>
	</g>
	<g>
		<g>
			<g>
				<g>
					<path fill="#fff" d="M298.128,48.063C244.572-4.459,158.274-3.619,105.751,49.933l-2.771-2.718
						C129.17,20.509,164.173,5.606,201.512,5.24c37.354-0.363,72.631,13.861,99.336,40.051L298.128,48.063z"/>
				</g>
				<g>
					<path fill="#fff" d="M100.696,65.692L90.192,63.26l-2.637-10.457l7.735-7.886l10.502,2.431l2.636,10.459L100.696,65.692z
						 M93.377,60.011l6.072,1.406l4.683-4.774l-1.523-6.045l-6.072-1.406l-4.685,4.775L93.377,60.011z"/>
				</g>
				<g>
					<path fill="#fff" d="M302.363,63.182l-7.293-7.886l2.976-10.631l10.328-2.951l7.291,7.883l-2.972,10.627L302.363,63.182z
						 M299.395,54.251l4.198,4.541l5.947-1.704l1.802-6.448l-4.196-4.538l-5.946,1.698L299.395,54.251z"/>
				</g>
			</g>
			<g>
				<g>
					<path fill="#fff" d="M154.584,305.537c-38.479-11.829-70.037-37.905-88.855-73.428
						c-18.82-35.523-22.672-76.277-10.845-114.756l3.71,1.141c-11.521,37.488-7.77,77.194,10.565,111.8
						c18.335,34.604,49.078,60.009,86.564,71.53L154.584,305.537z"/>
				</g>
				<g>
					<path fill="#fff" d="M56.74,119.843l-7.702-8.587l3.45-11.23l11.195-2.776l7.702,8.584l-3.45,11.23L56.74,119.843z
						 M53.394,110.299l4.677,5.213l6.798-1.687l2.161-7.033l-4.677-5.213l-6.796,1.687L53.394,110.299z"/>
				</g>
				<g>
					<path fill="#fff" d="M166.186,317.335l-11.044-2.813l-2.469-11.123l8.417-8.16l11.043,2.814l2.467,11.125L166.186,317.335z
						 M158.414,311.348l6.626,1.69l5.299-5.139l-1.478-6.673l-6.628-1.688l-5.301,5.136L158.414,311.348z"/>
				</g>
			</g>
			<g>
				<g>
					<path fill="#fff" d="M245.67,304.115l-1.051-3.739c77.877-21.886,123.428-103.049,101.544-180.925l3.736-1.05
						c10.89,38.753,6.051,79.401-13.622,114.46C316.603,267.917,284.424,293.222,245.67,304.115z"/>
				</g>
				<g>
					<path fill="#fff" d="M232.398,315.508l-8.396-7.908l3.051-11.124l11.307-3.179l8.396,7.907l-3.045,11.125L232.398,315.508z
						 M228.364,306.375l5.097,4.8l7.083-1.991l1.853-6.754l-5.1-4.799l-7.081,1.987L228.364,306.375z"/>
				</g>
				<g>
					<path fill="#fff" d="M349.137,121.164l-11.419-2.656l-3.612-10.81l8.017-8.097l11.419,2.658l3.612,10.808L349.137,121.164z
						 M340.714,115.217l7.191,1.673l4.808-4.858l-2.167-6.484l-7.19-1.674l-4.811,4.857L340.714,115.217z"/>
				</g>
			</g>
		</g>
		<g>
			<g>
				<polygon fill="#fff" points="299.594,119 202.65,286.905 105.713,119 128.013,119 202.65,248.275 277.29,119 				"/>
				<line fill="#fff" x1="202.65" y1="286.455" x2="105.731" y2="118.588"/>
				<polygon fill="#fff" points="244.527,119 202.653,191.526 160.779,119 				"/>
				<polyline fill="#fff" points="105.944,118.588 105.731,118.588 105.713,118.588 				"/>
			</g>
			<g>
				<g>
					<path fill="#fff" d="M177.079,74.744l-7.547-7.545c18.16-18.155,47.704-18.155,65.862,0l-7.547,7.545
						C213.852,60.748,191.076,60.748,177.079,74.744z"/>
				</g>
				<g>
					<path fill="#fff" d="M165.406,61.828l-7.544-7.545c24.593-24.595,64.608-24.595,89.205,0l-7.545,7.545
						C219.088,41.394,185.841,41.394,165.406,61.828z"/>
				</g>
				<g>
					<path fill="#fff" d="M214.79,86.446c-6.795-6.796-17.857-6.796-24.653,0l-7.547-7.546c10.959-10.959,28.79-10.958,39.746,0
						L214.79,86.446z"/>
				</g>
				<circle fill="#fff" cx="202.464" cy="100.224" r="10.484"/>
			</g>
		</g>
	</g>
</g>
</svg>
